<?xml version="1.0" encoding="utf-8"?>
<!-- Generator: Adobe Illustrator 20.1.0, SVG Export Plug-In . SVG Version: 6.00 Build 0)  -->
<svg version="1.1" id="Layer_1" xmlns="http://www.w3.org/2000/svg" xmlns:xlink="http://www.w3.org/1999/xlink" x="0px" y="0px"
	 viewBox="0 0 287.3 100" style="enable-background:new 0 0 287.3 100;" xml:space="preserve">
<style type="text/css">
	.st0{fill:#4B3029;}
	.st1{fill:none;stroke:#F6871F;stroke-width:1.0001;stroke-linecap:round;}
	.st2{fill:#F6871F;}
	.st3{fill:#F26524;}
	.st4{fill:#FBAD18;}
</style>
<g>
	<path class="st0" d="M226.8,75.2c0.1,0.5,0.3,0.9,0.6,1.3c0.3,0.4,0.6,0.7,1.1,1c0.4,0.3,0.9,0.4,1.5,0.4c0.9,0,1.6-0.2,2.2-0.7
		c0.5-0.5,0.9-1.1,1.1-1.9h1.3c-0.3,1.2-0.8,2.1-1.5,2.7c-0.7,0.6-1.7,1-3,1c-0.8,0-1.5-0.1-2.1-0.4c-0.6-0.3-1.1-0.7-1.4-1.2
		c-0.4-0.5-0.6-1.1-0.8-1.7c-0.2-0.7-0.3-1.4-0.3-2.1c0-0.7,0.1-1.3,0.3-2c0.2-0.7,0.5-1.2,0.8-1.7c0.4-0.5,0.9-0.9,1.4-1.2
		c0.6-0.3,1.3-0.5,2.1-0.5c0.8,0,1.5,0.2,2.1,0.5c0.6,0.3,1.1,0.8,1.4,1.3c0.4,0.5,0.6,1.2,0.8,1.9c0.2,0.7,0.2,1.4,0.2,2.1h-7.9
		C226.6,74.3,226.7,74.7,226.8,75.2 M233.1,71.4c-0.2-0.4-0.4-0.8-0.6-1.2c-0.3-0.3-0.6-0.6-1-0.8c-0.4-0.2-0.9-0.3-1.4-0.3
		c-0.5,0-1,0.1-1.4,0.3c-0.4,0.2-0.7,0.5-1,0.8c-0.3,0.3-0.5,0.7-0.7,1.2c-0.2,0.4-0.3,0.9-0.3,1.4h6.7
		C233.3,72.3,233.2,71.8,233.1,71.4 M219.9,68.3v2.4h0c0.3-0.8,0.8-1.5,1.5-1.9c0.7-0.5,1.5-0.7,2.4-0.6v1.3c-0.6,0-1.1,0-1.6,0.2
		c-0.5,0.2-0.9,0.4-1.2,0.8c-0.3,0.3-0.6,0.7-0.8,1.2c-0.2,0.5-0.3,1-0.3,1.5v5.5h-1.3V68.3H219.9L219.9,68.3z M212.9,68.5
		c0.6,0.3,1.1,0.7,1.5,1.2c0.4,0.5,0.7,1.1,0.9,1.7c0.2,0.7,0.3,1.4,0.3,2.1c0,0.7-0.1,1.4-0.3,2.1c-0.2,0.7-0.5,1.2-0.9,1.7
		c-0.4,0.5-0.9,0.9-1.5,1.2c-0.6,0.3-1.3,0.4-2.1,0.4c-0.8,0-1.5-0.1-2.1-0.4c-0.6-0.3-1.1-0.7-1.5-1.2c-0.4-0.5-0.7-1.1-0.9-1.7
		c-0.2-0.7-0.3-1.4-0.3-2.1c0-0.7,0.1-1.4,0.3-2.1c0.2-0.7,0.5-1.2,0.9-1.7c0.4-0.5,0.9-0.9,1.5-1.2c0.6-0.3,1.3-0.4,2.1-0.4
		C211.6,68,212.3,68.2,212.9,68.5 M209.2,69.5c-0.5,0.3-0.8,0.6-1.1,1c-0.3,0.4-0.5,0.9-0.7,1.4c-0.2,0.5-0.2,1.1-0.2,1.6
		c0,0.5,0.1,1.1,0.2,1.6c0.2,0.5,0.4,1,0.7,1.4c0.3,0.4,0.7,0.7,1.1,1c0.5,0.3,1,0.4,1.6,0.4c0.6,0,1.1-0.1,1.6-0.4
		c0.5-0.3,0.8-0.6,1.1-1c0.3-0.4,0.5-0.9,0.7-1.4c0.2-0.5,0.2-1.1,0.2-1.6c0-0.5-0.1-1.1-0.2-1.6c-0.2-0.5-0.4-1-0.7-1.4
		c-0.3-0.4-0.7-0.7-1.1-1c-0.5-0.3-1-0.4-1.6-0.4C210.2,69.1,209.7,69.2,209.2,69.5 M189.8,68.3v1.7h0.1c0.3-0.6,0.8-1.1,1.3-1.5
		c0.5-0.4,1.2-0.5,2.1-0.5c0.7,0,1.3,0.2,1.8,0.5c0.6,0.3,0.9,0.8,1.1,1.5c0.3-0.7,0.8-1.2,1.4-1.5c0.6-0.3,1.2-0.5,1.9-0.5
		c2.3,0,3.4,1.2,3.4,3.6v7h-1.3v-6.9c0-0.9-0.2-1.5-0.5-1.9c-0.4-0.4-1-0.7-1.9-0.7c-0.5,0-1,0.1-1.4,0.3c-0.4,0.2-0.6,0.5-0.9,0.8
		c-0.2,0.3-0.4,0.7-0.5,1.2c-0.1,0.4-0.1,0.9-0.1,1.4v5.8h-1.3v-7c0-0.3,0-0.7-0.1-1c-0.1-0.3-0.2-0.6-0.4-0.8
		c-0.2-0.2-0.4-0.4-0.7-0.5c-0.3-0.1-0.6-0.2-1-0.2c-0.5,0-1,0.1-1.4,0.3c-0.4,0.2-0.7,0.5-1,0.8c-0.2,0.3-0.4,0.7-0.5,1.2
		c-0.1,0.5-0.2,1-0.2,1.5v5.8h-1.3V68.3H189.8L189.8,68.3z M171.3,75.2c0.1,0.5,0.3,0.9,0.6,1.3c0.3,0.4,0.6,0.7,1.1,1
		c0.4,0.3,0.9,0.4,1.5,0.4c0.9,0,1.6-0.2,2.2-0.7c0.5-0.5,0.9-1.1,1.1-1.9h1.3c-0.3,1.2-0.8,2.1-1.5,2.7c-0.7,0.6-1.7,1-3,1
		c-0.8,0-1.5-0.1-2.1-0.4c-0.6-0.3-1.1-0.7-1.4-1.2c-0.4-0.5-0.6-1.1-0.8-1.7c-0.2-0.7-0.3-1.4-0.3-2.1c0-0.7,0.1-1.3,0.3-2
		c0.2-0.7,0.5-1.2,0.8-1.7c0.4-0.5,0.9-0.9,1.4-1.2c0.6-0.3,1.3-0.5,2.1-0.5c0.8,0,1.5,0.2,2.1,0.5c0.6,0.3,1.1,0.8,1.4,1.3
		c0.4,0.5,0.6,1.2,0.8,1.9c0.2,0.7,0.2,1.4,0.2,2.1h-7.9C171.1,74.3,171.1,74.7,171.3,75.2 M177.5,71.4c-0.2-0.4-0.4-0.8-0.6-1.2
		c-0.3-0.3-0.6-0.6-1-0.8c-0.4-0.2-0.9-0.3-1.4-0.3c-0.5,0-1,0.1-1.4,0.3c-0.4,0.2-0.7,0.5-1,0.8c-0.3,0.3-0.5,0.7-0.7,1.2
		c-0.2,0.4-0.3,0.9-0.3,1.4h6.7C177.7,72.3,177.6,71.8,177.5,71.4 M166.7,78.6h-1.3V64.4h1.3V78.6L166.7,78.6z M161.8,78.6h-1.3
		V68.3h1.3V78.6L161.8,78.6z M161.8,66.4h-1.3v-2h1.3V66.4L161.8,66.4z M143.9,68.3v1.7h0.1c0.3-0.6,0.8-1.1,1.3-1.5
		c0.5-0.4,1.2-0.5,2.1-0.5c0.7,0,1.3,0.2,1.8,0.5c0.6,0.3,0.9,0.8,1.1,1.5c0.3-0.7,0.8-1.2,1.4-1.5c0.6-0.3,1.2-0.5,1.9-0.5
		c2.3,0,3.4,1.2,3.4,3.6v7h-1.3v-6.9c0-0.9-0.2-1.5-0.5-1.9c-0.4-0.4-1-0.7-1.9-0.7c-0.5,0-1,0.1-1.4,0.3c-0.4,0.2-0.6,0.5-0.9,0.8
		c-0.2,0.3-0.4,0.7-0.4,1.2c-0.1,0.4-0.1,0.9-0.1,1.4v5.8h-1.3v-7c0-0.3,0-0.7-0.1-1c-0.1-0.3-0.2-0.6-0.4-0.8
		c-0.2-0.2-0.4-0.4-0.7-0.5c-0.3-0.1-0.6-0.2-1-0.2c-0.5,0-1,0.1-1.4,0.3c-0.4,0.2-0.7,0.5-1,0.8c-0.2,0.3-0.4,0.7-0.5,1.2
		c-0.1,0.5-0.2,1-0.2,1.5v5.8h-1.3V68.3H143.9L143.9,68.3z M137.8,70.3c-0.1-0.3-0.3-0.5-0.6-0.7c-0.2-0.2-0.5-0.3-0.8-0.4
		c-0.3-0.1-0.7-0.1-1-0.1c-0.3,0-0.6,0-0.8,0.1c-0.3,0.1-0.5,0.2-0.8,0.3c-0.2,0.1-0.4,0.3-0.6,0.5c-0.1,0.2-0.2,0.5-0.2,0.8
		c0,0.3,0.1,0.5,0.2,0.7c0.1,0.2,0.3,0.4,0.5,0.5c0.2,0.1,0.4,0.2,0.7,0.3c0.3,0.1,0.5,0.2,0.7,0.2l1.7,0.4c0.4,0.1,0.7,0.2,1.1,0.3
		c0.4,0.1,0.7,0.3,0.9,0.5c0.3,0.2,0.5,0.5,0.7,0.8c0.2,0.3,0.3,0.7,0.3,1.2c0,0.6-0.1,1-0.4,1.4c-0.3,0.4-0.6,0.7-1,1
		c-0.4,0.2-0.8,0.4-1.3,0.5c-0.5,0.1-1,0.2-1.5,0.2c-1.2,0-2.2-0.3-2.9-0.9c-0.8-0.6-1.2-1.5-1.3-2.8h1.3c0.1,0.8,0.4,1.5,0.9,1.9
		c0.6,0.4,1.3,0.6,2.1,0.6c0.3,0,0.6,0,0.9-0.1c0.3-0.1,0.6-0.2,0.9-0.3c0.3-0.2,0.5-0.4,0.7-0.6c0.2-0.2,0.3-0.6,0.3-0.9
		c0-0.3-0.1-0.6-0.2-0.8c-0.1-0.2-0.3-0.4-0.5-0.5c-0.2-0.1-0.5-0.3-0.7-0.3c-0.3-0.1-0.5-0.2-0.8-0.2l-1.6-0.4
		c-0.4-0.1-0.8-0.2-1.1-0.4c-0.3-0.1-0.6-0.3-0.9-0.5c-0.3-0.2-0.5-0.5-0.6-0.8c-0.1-0.3-0.2-0.7-0.2-1.1c0-0.5,0.1-1,0.4-1.3
		c0.2-0.4,0.5-0.7,0.9-0.9c0.4-0.2,0.8-0.4,1.2-0.5c0.5-0.1,0.9-0.2,1.4-0.2c0.5,0,1,0.1,1.4,0.2c0.4,0.1,0.8,0.3,1.2,0.6
		c0.3,0.3,0.6,0.6,0.8,1c0.2,0.4,0.3,0.9,0.3,1.5h-1.3C138.1,71,138,70.6,137.8,70.3"/>
	<line class="st1" x1="88.6" y1="56.2" x2="276" y2="56.2"/>
	<g>
		<path class="st0" d="M89.1,28.2c0-1.2-0.1-2.4-0.2-3.6c0.4,0,0.9,0.1,1.4,0.1c0.5,0,0.9,0,1.4,0c0.2,0,0.5,0,0.8,0
			c0.3,0,0.6,0,1,0c0.3,0,0.6,0,0.9,0c0.3,0,0.5,0,0.8,0c0.3,0,0.6,0,1,0c0.4,0,0.8,0.1,1.3,0.2c0.5,0.1,0.9,0.2,1.4,0.4
			s0.9,0.5,1.2,0.8c0.4,0.4,0.7,0.8,0.9,1.3c0.2,0.5,0.3,1.2,0.3,2c0,1.2-0.3,2.2-0.8,3c-0.5,0.8-1.2,1.4-2,1.8
			c-0.8,0.4-1.6,0.7-2.5,0.9c-0.9,0.2-1.6,0.2-2.3,0.2c-0.4,0-0.8,0-1.2,0c-0.4,0-0.7,0-1.1-0.1v1.5c0,1.2,0,2.4,0.1,3.6
			c0,1.2,0.1,2.4,0.2,3.5c-0.4,0-0.9-0.1-1.4-0.1c-0.5,0-0.9,0-1.4,0.1c0.1-1.2,0.1-2.3,0.2-3.5c0-1.2,0.1-2.4,0.1-3.6v-4.8
			C89.2,30.6,89.2,29.4,89.1,28.2z M93.5,34.1c0.6,0,1.2-0.1,1.8-0.2s1.2-0.4,1.7-0.7c0.5-0.3,0.9-0.8,1.3-1.4s0.5-1.4,0.5-2.3
			c0-0.8-0.1-1.5-0.3-2c-0.2-0.5-0.5-0.9-0.9-1.2c-0.4-0.3-0.9-0.5-1.5-0.6c-0.6-0.1-1.2-0.2-2-0.2h-2.5v8.3
			C92.1,34.1,92.8,34.1,93.5,34.1z"/>
		<path class="st0" d="M118.7,43.8c-0.3,0-0.5-0.1-0.7-0.1c-0.2,0-0.5,0-0.7,0c-0.3,0-0.5,0-0.7,0c-0.2,0-0.5,0-0.7,0.1
			c-0.1-0.4-0.3-0.9-0.5-1.6c-0.2-0.6-0.5-1.2-0.7-1.9c-0.3-0.7-0.5-1.3-0.8-2c-0.3-0.7-0.5-1.3-0.8-1.9c-0.6,0-1.2,0-1.8,0
			c-0.6,0-1.2,0-1.8,0c-0.6,0-1.1,0-1.7,0c-0.6,0-1.1,0-1.7,0c-0.6,1.5-1.1,2.8-1.6,4.2c-0.5,1.3-0.8,2.4-1.1,3.3
			c-0.3,0-0.7-0.1-1-0.1s-0.7,0-1,0.1c1.5-3.3,3-6.5,4.4-9.7s2.9-6.5,4.3-9.8h0.5c0.4,1.1,0.9,2.3,1.5,3.5c0.5,1.3,1.1,2.5,1.6,3.8
			c0.5,1.3,1.1,2.6,1.6,3.8c0.5,1.3,1,2.4,1.5,3.5c0.5,1.1,0.9,2.1,1.3,2.9C118.1,42.7,118.4,43.3,118.7,43.8z M106.3,35.1
			c0.5,0,1,0,1.5,0c0.5,0,1,0,1.5,0c0.5,0,1,0,1.6,0c0.5,0,1,0,1.6,0l-3.1-7.1L106.3,35.1z"/>
	</g>
	<g>
		<path class="st0" d="M135.6,27.5c0-1.4-0.1-2.4-0.1-3c0.2,0,0.4,0.1,0.6,0.1c0.2,0,0.4,0,0.6,0c0.2,0,0.5,0,0.8-0.1
			c-0.1,0.7-0.1,1.4-0.2,2.3c-0.1,0.9-0.1,1.9-0.1,2.9c0,1-0.1,2.1-0.1,3.2c0,1.1-0.1,2.1-0.1,3.2c0,1.2-0.2,2.4-0.6,3.4
			c-0.4,1-0.9,1.8-1.6,2.5s-1.5,1.2-2.5,1.6c-1,0.4-2.1,0.5-3.4,0.5c-2.8,0-4.8-0.6-6.1-1.9c-1.3-1.3-1.9-3.3-1.9-6
			c0-0.9,0-1.7,0.1-2.3c0-0.7,0.1-1.4,0.1-2.1c0-1.6,0-3-0.1-4.2c0-1.2-0.1-2.2-0.1-3.1c0.2,0,0.5,0.1,0.7,0.1c0.3,0,0.5,0,0.7,0
			c0.2,0,0.4,0,0.6,0c0.2,0,0.4-0.1,0.6-0.1c0,0.4-0.1,0.9-0.1,1.6c0,0.7-0.1,1.4-0.1,2.3c0,0.8-0.1,1.7-0.1,2.7c0,1,0,2,0,3
			c0,0.6,0,1.3,0,2c0,0.7,0.1,1.3,0.2,2c0.1,0.6,0.3,1.3,0.5,1.8c0.3,0.6,0.6,1.1,1.1,1.5s1.1,0.8,1.8,1c0.7,0.3,1.6,0.4,2.6,0.4
			c1,0,1.9-0.2,2.6-0.4s1.3-0.7,1.7-1.2c0.4-0.5,0.8-1,1-1.7c0.3-0.6,0.4-1.3,0.5-2c0.1-0.7,0.2-1.4,0.2-2.1s0-1.3,0-1.9
			C135.6,31,135.6,29,135.6,27.5z"/>
		<path class="st0" d="M142.7,28.2c0-1.2-0.1-2.4-0.2-3.6c0.2,0,0.5,0.1,0.7,0.1c0.2,0,0.4,0,0.7,0c0.2,0,0.4,0,0.7,0
			c0.2,0,0.5-0.1,0.7-0.1c-0.1,1.2-0.1,2.4-0.2,3.6c0,1.2-0.1,2.4-0.1,3.6c0,2.3,0,4.4,0,6.1c0,1.7,0,3.3,0.1,4.6c1.3,0,2.6,0,3.8,0
			c1.2,0,2.5-0.1,3.9-0.3c-0.1,0.3-0.1,0.6-0.1,0.8c0,0.2,0,0.5,0.1,0.8c-0.9,0-1.7-0.1-2.6-0.1c-0.9,0-1.7,0-2.6,0
			c-0.9,0-1.8,0-2.6,0c-0.8,0-1.7,0-2.6,0.1c0.1-1.2,0.1-2.3,0.2-3.5c0-1.2,0.1-2.4,0.1-3.6v-4.8C142.8,30.6,142.8,29.4,142.7,28.2z
			"/>
		<path class="st0" d="M164.5,28.2c0-1.2-0.1-2.4-0.2-3.6c0.2,0,0.5,0.1,0.7,0.1c0.2,0,0.4,0,0.7,0c0.2,0,0.4,0,0.7,0
			c0.2,0,0.5-0.1,0.7-0.1c-0.1,1.2-0.1,2.4-0.2,3.6c0,1.2-0.1,2.4-0.1,3.6c0,2.3,0,4.4,0,6.1c0,1.7,0,3.3,0.1,4.6c1.3,0,2.6,0,3.8,0
			c1.2,0,2.5-0.1,3.9-0.3c-0.1,0.3-0.1,0.6-0.1,0.8c0,0.2,0,0.5,0.1,0.8c-0.9,0-1.7-0.1-2.6-0.1c-0.9,0-1.7,0-2.6,0
			c-0.9,0-1.8,0-2.6,0c-0.8,0-1.7,0-2.6,0.1c0.1-1.2,0.1-2.3,0.2-3.5c0-1.2,0.1-2.4,0.1-3.6v-4.8C164.5,30.6,164.5,29.4,164.5,28.2z
			"/>
		<path class="st0" d="M178.4,28.1c0-1.2-0.1-2.4-0.2-3.6c0.8,0,1.7,0.1,2.5,0.1c0.8,0,1.7,0,2.5,0c0.8,0,1.7,0,2.5,0
			c0.8,0,1.6-0.1,2.5-0.1c-0.1,0.3-0.1,0.6-0.1,0.8c0,0.3,0,0.6,0.1,0.8c-0.6,0-1.1-0.1-1.6-0.1c-0.5,0-1-0.1-1.6-0.1
			c-0.6,0-1.2-0.1-1.8-0.1c-0.7,0-1.4,0-2.3,0c0,0.6,0,1.2-0.1,1.7c0,0.5,0,1.2,0,1.8c0,0.7,0,1.4,0,2.1s0,1.2,0,1.6
			c0.8,0,1.6,0,2.2,0c0.7,0,1.2,0,1.8-0.1c0.5,0,1-0.1,1.5-0.1c0.5,0,0.9-0.1,1.3-0.1c-0.1,0.3-0.1,0.6-0.1,0.9c0,0.3,0,0.6,0.1,0.8
			c-0.5-0.1-1-0.1-1.7-0.1c-0.6,0-1.3-0.1-1.9-0.1c-0.6,0-1.2,0-1.8,0c-0.6,0-1,0-1.4,0c0,0.2,0,0.3,0,0.5s0,0.4,0,0.7v1.1v1.7
			c0,1.1,0,1.9,0,2.6s0,1.2,0,1.6c0.6,0,1.3,0,2,0c0.7,0,1.4,0,2.1,0c0.7,0,1.3-0.1,1.9-0.1c0.6,0,1.1-0.1,1.6-0.2
			c0,0.1-0.1,0.3-0.1,0.4c0,0.2,0,0.3,0,0.4c0,0.3,0,0.5,0.1,0.7c-0.8,0-1.7-0.1-2.5-0.1s-1.7,0-2.5,0s-1.7,0-2.5,0
			c-0.8,0-1.7,0-2.5,0.1c0.1-1.2,0.1-2.4,0.2-3.6c0-1.2,0.1-2.4,0.1-3.6v-4.8C178.5,30.6,178.5,29.3,178.4,28.1z"/>
		<path class="st0" d="M192.4,28.1c0-1.2-0.1-2.4-0.2-3.6c0.8,0,1.7,0.1,2.5,0.1c0.8,0,1.7,0,2.5,0c0.8,0,1.7,0,2.5,0
			c0.8,0,1.6-0.1,2.5-0.1c-0.1,0.3-0.1,0.6-0.1,0.8c0,0.3,0,0.6,0.1,0.8c-0.6,0-1.1-0.1-1.6-0.1c-0.5,0-1-0.1-1.6-0.1
			c-0.6,0-1.2-0.1-1.8-0.1c-0.7,0-1.4,0-2.3,0c0,0.6,0,1.2-0.1,1.7c0,0.5,0,1.2,0,1.8c0,0.7,0,1.4,0,2.1c0,0.7,0,1.2,0,1.6
			c0.8,0,1.6,0,2.2,0c0.7,0,1.2,0,1.8-0.1c0.5,0,1-0.1,1.5-0.1c0.5,0,0.9-0.1,1.3-0.1c-0.1,0.3-0.1,0.6-0.1,0.9c0,0.3,0,0.6,0.1,0.8
			c-0.5-0.1-1-0.1-1.7-0.1c-0.6,0-1.3-0.1-1.9-0.1c-0.6,0-1.2,0-1.8,0c-0.6,0-1,0-1.4,0c0,0.2,0,0.3,0,0.5c0,0.2,0,0.4,0,0.7v1.1
			v1.7c0,1.1,0,1.9,0,2.6c0,0.7,0,1.2,0,1.6c0.6,0,1.3,0,2,0c0.7,0,1.4,0,2.1,0c0.7,0,1.3-0.1,1.9-0.1c0.6,0,1.1-0.1,1.6-0.2
			c0,0.1-0.1,0.3-0.1,0.4c0,0.2,0,0.3,0,0.4c0,0.3,0,0.5,0.1,0.7c-0.8,0-1.7-0.1-2.5-0.1s-1.7,0-2.5,0c-0.9,0-1.7,0-2.5,0
			s-1.7,0-2.5,0.1c0.1-1.2,0.1-2.4,0.2-3.6c0-1.2,0.1-2.4,0.1-3.6v-4.8C192.5,30.6,192.5,29.3,192.4,28.1z"/>
		<path class="st0" d="M207.1,40.9c0.2-0.2,0.5-0.3,0.8-0.3c0.2,0,0.5,0.1,0.7,0.2c0.2,0.1,0.3,0.4,0.3,0.7c0,0.2,0,0.4-0.1,0.6
			c-0.1,0.2-0.2,0.4-0.3,0.6l-3.5,5.8l-0.5-0.2l2.2-6.7C206.8,41.4,206.9,41.1,207.1,40.9z"/>
		<path class="st0" d="M221.9,28.2c0-1.2-0.1-2.4-0.2-3.6c0.7,0,1.4,0.1,2.1,0.1c0.7,0,1.4,0,2.1,0s1.4,0,2.1-0.1
			c0.7,0,1.4-0.1,2.1-0.1c1.6,0,3,0.2,4.2,0.6c1.2,0.4,2.1,1,2.9,1.8c0.7,0.8,1.3,1.8,1.6,2.9c0.3,1.1,0.5,2.4,0.5,3.9
			c0,1.9-0.3,3.4-1,4.7s-1.5,2.3-2.5,3.1c-1,0.8-2.1,1.3-3.3,1.7c-1.2,0.3-2.4,0.5-3.5,0.5c-0.6,0-1.3,0-1.9,0c-0.6,0-1.2,0-1.9,0
			c-0.6,0-1.3,0-1.9,0c-0.6,0-1.2,0-1.9,0.1c0.1-1.2,0.1-2.3,0.2-3.5c0-1.2,0.1-2.4,0.1-3.6v-4.8C222,30.6,222,29.4,221.9,28.2z
			 M224.4,42.5c0.4,0.1,0.9,0.2,1.6,0.2s1.4,0.1,2.1,0.1c1,0,2-0.1,3.1-0.4c1-0.2,1.9-0.7,2.8-1.4c0.8-0.7,1.5-1.6,2-2.8
			c0.5-1.2,0.8-2.7,0.8-4.5c0-1.6-0.2-3-0.6-4c-0.4-1-1-1.9-1.6-2.5c-0.7-0.6-1.5-1-2.5-1.3c-1-0.2-2-0.3-3.2-0.3
			c-0.8,0-1.6,0-2.3,0.1s-1.4,0.1-2,0.2c-0.1,0.9-0.1,1.8-0.1,2.8c0,1,0,2,0,3v4.8C224.3,38.6,224.3,40.6,224.4,42.5z"/>
		<path class="st0" d="M243.7,28.2c0-1.2-0.1-2.4-0.2-3.6c0.7,0,1.4,0.1,2.1,0.1c0.7,0,1.4,0,2.1,0s1.4,0,2.1-0.1
			c0.7,0,1.4-0.1,2.1-0.1c1.6,0,3,0.2,4.2,0.6c1.2,0.4,2.1,1,2.9,1.8c0.7,0.8,1.3,1.8,1.6,2.9c0.3,1.1,0.5,2.4,0.5,3.9
			c0,1.9-0.3,3.4-1,4.7c-0.6,1.3-1.5,2.3-2.5,3.1c-1,0.8-2.1,1.3-3.3,1.7c-1.2,0.3-2.4,0.5-3.5,0.5c-0.6,0-1.3,0-1.9,0
			c-0.6,0-1.2,0-1.9,0c-0.6,0-1.3,0-1.9,0c-0.6,0-1.2,0-1.9,0.1c0.1-1.2,0.1-2.3,0.2-3.5c0-1.2,0.1-2.4,0.1-3.6v-4.8
			C243.7,30.6,243.7,29.4,243.7,28.2z M246.2,42.5c0.4,0.1,0.9,0.2,1.6,0.2s1.4,0.1,2.1,0.1c1,0,2-0.1,3.1-0.4
			c1-0.2,1.9-0.7,2.8-1.4c0.8-0.7,1.5-1.6,2-2.8c0.5-1.2,0.8-2.7,0.8-4.5c0-1.6-0.2-3-0.6-4c-0.4-1-1-1.9-1.6-2.5
			c-0.7-0.6-1.5-1-2.5-1.3c-1-0.2-2-0.3-3.2-0.3c-0.8,0-1.6,0-2.3,0.1s-1.4,0.1-2,0.2c-0.1,0.9-0.1,1.8-0.1,2.8c0,1,0,2,0,3v4.8
			C246,38.6,246.1,40.6,246.2,42.5z"/>
		<path class="st0" d="M265.5,41.2c0.3,0.3,0.6,0.7,0.9,0.9c0.4,0.3,0.8,0.5,1.3,0.7c0.5,0.2,1,0.3,1.6,0.3c0.6,0,1.2-0.1,1.7-0.3
			c0.5-0.2,0.9-0.5,1.3-0.9c0.3-0.4,0.6-0.8,0.8-1.3c0.2-0.5,0.3-1,0.3-1.6c0-0.9-0.2-1.5-0.7-2c-0.4-0.5-1-0.9-1.6-1.3
			c-0.7-0.3-1.4-0.6-2.1-0.9c-0.8-0.3-1.5-0.6-2.1-1c-0.7-0.4-1.2-1-1.6-1.6c-0.4-0.7-0.7-1.5-0.7-2.6c0-0.8,0.1-1.5,0.4-2.1
			c0.3-0.6,0.7-1.2,1.2-1.7c0.5-0.5,1.2-0.8,1.9-1.1c0.7-0.3,1.6-0.4,2.5-0.4c0.9,0,1.7,0.1,2.3,0.3c0.7,0.2,1.3,0.5,1.8,1
			c-0.2,0.3-0.3,0.7-0.4,1c-0.1,0.4-0.2,0.8-0.3,1.3h-0.3c-0.1-0.3-0.2-0.5-0.4-0.9c-0.2-0.3-0.4-0.6-0.6-0.9
			c-0.3-0.3-0.6-0.5-1-0.7s-0.8-0.3-1.3-0.3s-1,0.1-1.4,0.3c-0.4,0.2-0.8,0.4-1.1,0.7c-0.3,0.3-0.6,0.7-0.8,1.1
			c-0.2,0.4-0.3,0.9-0.3,1.4c0,0.9,0.2,1.6,0.7,2.1c0.4,0.5,1,0.9,1.6,1.3c0.7,0.3,1.4,0.7,2.1,0.9c0.8,0.3,1.5,0.6,2.1,1
			c0.7,0.4,1.2,0.9,1.6,1.5c0.4,0.6,0.7,1.4,0.7,2.5c0,0.9-0.2,1.7-0.5,2.4c-0.3,0.8-0.8,1.4-1.3,2c-0.6,0.6-1.3,1-2.2,1.3
			c-0.8,0.3-1.8,0.5-2.9,0.5c-1.2,0-2.1-0.2-2.8-0.5c-0.7-0.3-1.3-0.7-1.8-1c0.2-0.4,0.3-0.8,0.3-1.2c0.1-0.3,0.1-0.8,0.2-1.3h0.3
			C265,40.5,265.2,40.8,265.5,41.2z"/>
	</g>
</g>
<path class="st2" d="M41.1,78.9v-10V29.1v-2.2c0,0,0-19.1-18.9-19.1H8.6v10v39.8v2.2c0,0,0,19.1,18.9,19.1H41.1L41.1,78.9z"/>
<path class="st3" d="M46.7,23.8L46.7,23.8v22.6c0,0,0,10.6,10.6,10.6h15.6V34.5c0,0,0-10.6-10.6-10.6H46.7L46.7,23.8z"/>
<path class="st4" d="M47.4,61.3L47.4,61.3v22.6c0,0,0,10.6,10.6,10.6h15.6V72c0,0,0-10.6-10.6-10.6H47.4L47.4,61.3z"/>
</svg>
